<?xml version="1.0" encoding="UTF-8" standalone="no"?>
<svg
   xmlns:dc="http://purl.org/dc/elements/1.1/"
   xmlns:cc="http://creativecommons.org/ns#"
   xmlns:rdf="http://www.w3.org/1999/02/22-rdf-syntax-ns#"
   xmlns:svg="http://www.w3.org/2000/svg"
   xmlns="http://www.w3.org/2000/svg"
   xmlns:sodipodi="http://sodipodi.sourceforge.net/DTD/sodipodi-0.dtd"
   xmlns:inkscape="http://www.inkscape.org/namespaces/inkscape"
   sodipodi:docname="favicon.svg"
   inkscape:version="1.1-dev (ae55a4e461, 2020-04-06)"
   id="svg8"
   version="1.1"
   viewBox="0 0 135.46667 135.46667"
   height="135.46667mm"
   width="135.46667mm">
  <defs
     id="defs2" />
  <sodipodi:namedview
     inkscape:window-maximized="1"
     inkscape:window-y="27"
     inkscape:window-x="0"
     inkscape:window-height="845"
     inkscape:window-width="1600"
     showgrid="false"
     inkscape:current-layer="layer1"
     inkscape:document-units="mm"
     inkscape:cy="262.06963"
     inkscape:cx="230.75801"
     inkscape:zoom="0.7"
     inkscape:pageshadow="2"
     inkscape:pageopacity="0.0"
     borderopacity="1.0"
     bordercolor="#666666"
     pagecolor="#ffffff"
     id="base" />
  <metadata
     id="metadata5">
    <rdf:RDF>
      <cc:Work
         rdf:about="">
        <dc:format>image/svg+xml</dc:format>
        <dc:type
           rdf:resource="http://purl.org/dc/dcmitype/StillImage" />
        <dc:title></dc:title>
      </cc:Work>
    </rdf:RDF>
  </metadata>
  <g
     transform="translate(-32.359393,-89.086764)"
     id="layer1"
     inkscape:groupmode="layer"
     inkscape:label="Layer 1">
    <g
       id="g893"
       transform="matrix(0.65875118,0,0,0.65875118,-930.01087,-291.87061)">
      <g
         id="g839">
        <path
           id="path833"
           stop-color="#000000"
           fill="#6610f2"
           d="m 1560.2,581.15 -86.602,50 86.602,50 86.602,-50 z" />
        <path
           id="path835"
           stop-color="#000000"
           fill="#af83f8"
           d="m 1646.8,631.15 -86.602,50 v 100 l 86.602,-50 z" />
        <path
           id="path837"
           stop-color="#000000"
           fill="#f0b6d3"
           d="m 1473.6,631.15 v 100 l 86.602,50 v -100 z" />
      </g>
      <path
         id="path841"
         stroke-width="1.3229"
         stroke-linejoin="round"
         stroke="#ffffff"
         stop-color="#000000"
         fill="none"
         d="m 1646.8,631.15 v 100" />
      <path
         id="path843"
         style="font-variant-ligatures:normal;font-variant-caps:normal;font-variant-numeric:normal;font-variant-east-asian:normal;inline-size:78.8382"
         stroke-width="2.4826"
         stroke="#250657"
         fill="#250657"
         d="m 1493.8,659.14 c -1.7894,-1.0922 -3.621,-1.2167 -3.6571,0.7411 -0.04,12.433 0,24.91 -0.017,37.36 -0.1823,6.6048 0.3853,13.996 4.241,21.949 4.3171,9.3749 12.688,17.266 20.536,21.643 1.3913,0.8035 2.7818,1.4737 4.1502,2.0141 5.9446,2.4849 11.209,2.0806 15.104,-0.1724 6.9191,-3.7623 7.0997,-15.733 2.1661,-27.404 -3.9695,-9.7312 -12.347,-19.016 -20.692,-23.621 -6.9797,-4.461 -13.727,-5.1566 -18.619,-3.1376 0.061,-8.1048 0.1291,-16.206 0.1928,-24.309 0.1329,-1.9115 -1.6144,-3.9712 -3.4038,-5.0633 z m 20.894,39.02 c 3.2903,1.8598 6.5853,4.5406 9.3395,7.9434 5.4423,6.2739 8.9997,14.436 8.6157,20.537 -0.012,4.0688 -1.5655,6.9497 -4.1701,8.5413 -4.9217,3.8091 -14.867,-0.3254 -21.936,-8.3845 -5.5736,-6.2252 -9.5867,-14.506 -9.3386,-20.815 -0.3144,-7.5997 4.8111,-11.698 11.69,-10.262 1.8525,0.5032 3.8251,1.3234 5.7993,2.4393 z" />
      <g
         id="g861"
         stroke-width="2.6458"
         stroke-linejoin="round"
         stroke-linecap="round"
         stroke="#ffffff"
         fill="none">
        <path
           id="path845"
           stop-color="#000000"
           d="m 1560.2,681.15 -86.602,-50" />
        <path
           id="path847"
           stop-color="#000000"
           d="m 1473.6,631.15 v 100" />
        <path
           id="path849"
           stop-color="#000000"
           d="m 1473.6,631.15 86.602,-50" />
        <path
           id="path851"
           stop-color="#000000"
           d="m 1560.2,681.15 86.602,-50 m -86.602,50 v 100" />
        <path
           id="path853"
           stop-color="#000000"
           d="m 1646.8,731.15 v -100" />
        <path
           id="path855"
           stop-color="#000000"
           d="m 1646.8,631.15 -86.603,-50" />
        <path
           id="path857"
           stop-color="#000000"
           d="m 1560.2,781.15 86.603,-50" />
        <path
           id="path859"
           stop-color="#000000"
           d="m 1560.2,781.15 -86.602,-50" />
      </g>
      <g
         id="g869">
        <path
           id="path863"
           stop-color="#000000"
           fill="#6610f2"
           d="m 1560.2,581.15 -86.602,50 86.602,50 86.602,-50 z" />
        <path
           id="path865"
           stop-color="#000000"
           fill="#af83f8"
           d="m 1646.8,631.15 -86.602,50 v 100 l 86.602,-50 z" />
        <path
           id="path867"
           stop-color="#000000"
           fill="#f0b6d3"
           d="m 1473.6,631.15 v 100 l 86.602,50 v -100 z" />
      </g>
      <path
         id="path871"
         stroke-width="1.3229"
         stroke-linejoin="round"
         stroke="#ffffff"
         stop-color="#000000"
         fill="none"
         d="m 1646.8,631.15 v 100" />
      <path
         id="path873"
         style="font-variant-ligatures:normal;font-variant-caps:normal;font-variant-numeric:normal;font-variant-east-asian:normal;inline-size:78.8382"
         stroke-width="2.4826"
         stroke="#250657"
         fill="#250657"
         d="m 1493.8,659.14 c -1.7894,-1.0922 -3.621,-1.2167 -3.6571,0.7411 -0.04,12.433 0,24.91 -0.017,37.36 -0.1823,6.6048 0.3853,13.996 4.241,21.949 4.3171,9.3749 12.688,17.266 20.536,21.643 1.3913,0.8035 2.7818,1.4737 4.1502,2.0141 5.9446,2.4849 11.209,2.0806 15.104,-0.1724 6.9191,-3.7623 7.0997,-15.733 2.1661,-27.404 -3.9695,-9.7312 -12.347,-19.016 -20.692,-23.621 -6.9797,-4.461 -13.727,-5.1566 -18.619,-3.1376 0.061,-8.1048 0.1291,-16.206 0.1928,-24.309 0.1329,-1.9115 -1.6144,-3.9712 -3.4038,-5.0633 z m 20.894,39.02 c 3.2903,1.8598 6.5853,4.5406 9.3395,7.9434 5.4423,6.2739 8.9997,14.436 8.6157,20.537 -0.012,4.0688 -1.5655,6.9497 -4.1701,8.5413 -4.9217,3.8091 -14.867,-0.3254 -21.936,-8.3845 -5.5736,-6.2252 -9.5867,-14.506 -9.3386,-20.815 -0.3144,-7.5997 4.8111,-11.698 11.69,-10.262 1.8525,0.5032 3.8251,1.3234 5.7993,2.4393 z" />
      <g
         id="g891"
         stroke-width="2.6458"
         stroke-linejoin="round"
         stroke-linecap="round"
         stroke="#ffffff"
         fill="none">
        <path
           id="path875"
           stop-color="#000000"
           d="m 1560.2,681.15 -86.602,-50" />
        <path
           id="path877"
           stop-color="#000000"
           d="m 1473.6,631.15 v 100" />
        <path
           id="path879"
           stop-color="#000000"
           d="m 1473.6,631.15 86.602,-50" />
        <path
           id="path881"
           stop-color="#000000"
           d="m 1560.2,681.15 86.602,-50 m -86.602,50 v 100" />
        <path
           id="path883"
           stop-color="#000000"
           d="m 1646.8,731.15 v -100" />
        <path
           id="path885"
           stop-color="#000000"
           d="m 1646.8,631.15 -86.603,-50" />
        <path
           id="path887"
           stop-color="#000000"
           d="m 1560.2,781.15 86.603,-50" />
        <path
           id="path889"
           stop-color="#000000"
           d="m 1560.2,781.15 -86.602,-50" />
      </g>
    </g>
    <rect
       y="89.173187"
       x="32.445816"
       height="135.29382"
       width="135.29382"
       id="rect967"
       style="opacity:0.467783;fill:none;fill-opacity:0.00137892;stroke:#000000;stroke-width:0.172846;stroke-linecap:round;stroke-linejoin:round;stroke-opacity:1;stop-color:#000000" />
  </g>
</svg>
