<?xml version="1.0" encoding="UTF-8" standalone="no"?>
<svg
   xmlns:svg="http://www.w3.org/2000/svg"
   xmlns="http://www.w3.org/2000/svg"
   xmlns:sodipodi="http://sodipodi.sourceforge.net/DTD/sodipodi-0.dtd"
   xmlns:inkscape="http://www.inkscape.org/namespaces/inkscape"
   sodipodi:docname="user-exp.svg"
   inkscape:version="1.1-dev (89b7b8b023, 2020-05-22)"
   id="svg1599"
   version="1.1"
   viewBox="0 0 32.01207 33.98904"
   height="33.98904mm"
   width="32.01207mm">
  <defs
     id="defs1595" />
  <sodipodi:namedview
     inkscape:window-maximized="1"
     inkscape:window-y="27"
     inkscape:window-x="0"
     inkscape:window-height="845"
     inkscape:window-width="1600"
     showgrid="false"
     inkscape:current-layer="layer1"
     inkscape:document-units="mm"
     inkscape:cy="418.51698"
     inkscape:cx="-13.790466"
     inkscape:zoom="0.35"
     inkscape:pageshadow="2"
     inkscape:pageopacity="0.0"
     borderopacity="1.0"
     bordercolor="#666666"
     pagecolor="#ffffff"
     id="base" />
  <g
     transform="translate(-109.48206,-37.43405)"
     id="layer1"
     inkscape:groupmode="layer"
     inkscape:label="Layer 1">
    <g
       id="g7984"
       transform="matrix(1.0887166,0,0,1.0887166,129.70099,-186.43233)">
      <path
         id="path7980"
         d="m 2.3613293,219.26951 c 1.1405572,-0.0466 4.2480785,0.47341 4.2480785,-3.65532 v 0 c 0,-4.12914 -4.4698975,-3.61299 -4.4698975,-3.61299 v 0 c 0,-0.001 0.06441,-5.64038 -4.466182,-5.63865 v 0 c -4.53101,0.002 -4.5178177,4.87975 -4.5178177,4.87975 v 0 c 0,0 -0.9747161,-1.8157 -3.9117646,-1.77675 -2.38183,0.0316 -3.946568,1.93136 -4.089976,4.08405 v 0 c -8.25e-4,-1e-4 -3.658379,-0.34239 -3.59194,2.75151 0.05146,1.64878 0.957814,2.95758 2.498603,2.96816 6.3348672,-0.029 12.8556721,0.0123 18.3008963,2.3e-4 z"
         style="fill:#250657;fill-opacity:1;stroke:#00214e;stroke-width:0.264583;stroke-linecap:round;stroke-linejoin:round;stroke-miterlimit:4;stroke-dasharray:none;stroke-opacity:1"
         inkscape:connector-curvature="0"
         sodipodi:nodetypes="cssscsssccscsccc" />
      <path
         sodipodi:nodetypes="cssscsssccscsccc"
         inkscape:connector-curvature="0"
         style="fill:#ffffff;fill-opacity:1;stroke:#00214e;stroke-width:0.264583;stroke-linecap:round;stroke-linejoin:round;stroke-miterlimit:4;stroke-dasharray:none;stroke-opacity:1"
         d="m 3.2860591,218.66336 c 1.1405572,-0.0466 4.2480785,0.47341 4.2480785,-3.65532 v 0 c 0,-4.12914 -4.4698975,-3.61299 -4.4698975,-3.61299 v 0 c 0,-0.001 0.06441,-5.64038 -4.466182,-5.63865 v 0 c -4.53101,0.002 -4.5178177,4.87975 -4.5178177,4.87975 v 0 c 0,0 -0.9747161,-1.8157 -3.9117642,-1.77675 -2.3818302,0.0316 -3.9465682,1.93136 -4.0899762,4.08405 v 0 c -8.25e-4,-1e-4 -3.658379,-0.34239 -3.59194,2.75151 0.05146,1.64878 0.957814,2.95758 2.498603,2.96816 6.3348675,-0.029 12.8556719,0.0123 18.3008961,2.3e-4 z"
         id="path2349" />
    </g>
    <path
       style="fill:#ffdf7e;fill-opacity:1;fill-rule:evenodd;stroke:none;stroke-width:0.121368;stroke-linecap:round;stroke-linejoin:round;stroke-miterlimit:4;stroke-dasharray:none;stroke-opacity:1"
       d="m 127.90737,38.988019 c -3.17822,10.99012 -12.01026,25.377601 -11.30928,25.369449 0.70099,-0.009 8.90701,0.0131 11.78366,-0.038 -0.0257,-2.53757 0.6418,-29.19122 -0.47438,-25.33151 z"
       id="path7907"
       sodipodi:nodetypes="szcss" />
    <path
       id="path8859"
       style="fill:#4ab563;fill-opacity:1;stroke:#00214e;stroke-width:0.0865423;stroke-linecap:round;stroke-miterlimit:4;stroke-dasharray:none;stroke-opacity:1;stop-color:#000000"
       d="m 118.54743,62.920479 c 0.01,-0.003 0.0204,-0.006 0.031,-0.008 0.6485,-0.1501 0.78791,1.01073 1.13658,1.04784 0.34868,0.0371 0.80004,-0.01611 1.07622,-0.0383 0.006,-5.3e-4 0.012,-4e-5 0.0176,7.93e-4 a 0.68135436,0.72314943 71.62409 0 1 0.76098,0.449469 0.68135436,0.72314943 71.62409 0 1 -0.47149,0.874612 0.68135436,0.72314943 71.62409 0 1 -0.42414,0.0145 c -0.0445,-0.006 -1.63396,-0.235611 -1.93573,-0.587261 -0.30126,-0.351049 -0.8238,-1.565459 -0.19109,-1.75354 z" />
    <path
       id="path8861"
       d="m 119.71723,65.83746 a 1.8433451,1.0746202 19.935401 0 1 1.39319,0.13638 1.8433451,1.0746202 19.935401 0 1 1.40335,1.371269 0.86828977,1.7127088 8.4412347 0 1 -0.003,1.25521 0.86828977,1.7127088 8.4412347 0 1 -0.17811,0.57972 1.0624437,0.55883934 11.267363 0 1 0.79445,0.778799 1.0624437,0.55883934 11.267363 0 1 -1.23614,0.26561 1.0624437,0.55883934 11.267363 0 1 -0.60797,-0.28873 0.86828977,1.7127088 8.4412347 0 1 -0.4513,-1.814869 1.8433451,1.0746202 19.935401 0 1 -0.45443,-0.126561 1.8433451,1.0746202 19.935401 0 1 -1.36648,-1.63871 1.8433451,1.0746202 19.935401 0 1 0.7061,-0.518118 z"
       style="fill:#4ab563;fill-opacity:1;stroke:#00214e;stroke-width:0.0865423;stroke-linecap:butt;stroke-miterlimit:4;stroke-dasharray:none;stroke-opacity:1;stop-color:#000000" />
    <rect
       transform="matrix(-0.89248644,0.45107423,0.45104976,0.8924988,0,0)"
       ry="1.4964778"
       y="109.10648"
       x="-78.107841"
       height="6.1556582"
       width="3.9778378"
       id="rect8863"
       style="fill:#b2debb;fill-opacity:1;stroke:#00214e;stroke-width:0.0865423;stroke-linecap:butt;stroke-miterlimit:4;stroke-dasharray:none;stroke-opacity:1;stop-color:#000000" />
    <path
       id="path8865"
       d="m 117.1029,60.548789 a 0.754678,0.754678 0 0 0 0.79781,0.70892 0.754678,0.754678 0 0 0 0.70893,-0.7978 0.754678,0.754678 0 0 0 -0.79781,-0.70893 0.754678,0.754678 0 0 0 -0.70893,0.79781"
       style="fill:#4ab563;fill-opacity:1;stroke:#00214e;stroke-width:0.0865423;stroke-linecap:round;stroke-miterlimit:4;stroke-dasharray:none;stroke-opacity:1;stop-color:#000000" />
    <path
       id="path8867"
       d="m 115.01124,62.079519 a 1.886695,1.886695 0 0 0 1.99452,1.77232 1.886695,1.886695 0 0 0 1.77232,-1.99452 1.886695,1.886695 0 0 0 -1.99452,-1.77232 1.886695,1.886695 0 0 0 -1.77232,1.99452"
       style="fill:#4ab563;fill-opacity:1;stroke:#00214e;stroke-width:0.0865423;stroke-linecap:round;stroke-miterlimit:4;stroke-dasharray:none;stroke-opacity:1;stop-color:#000000" />
    <path
       id="path8869"
       d="m 114.47967,61.804889 a 0.754678,0.754678 0 0 0 0.7978,0.70894 0.754678,0.754678 0 0 0 0.70893,-0.79781 0.754678,0.754678 0 0 0 -0.79781,-0.70893 0.754678,0.754678 0 0 0 -0.70892,0.7978"
       style="fill:#4ab563;fill-opacity:1;stroke:#00214e;stroke-width:0.0865423;stroke-linecap:round;stroke-miterlimit:4;stroke-dasharray:none;stroke-opacity:1;stop-color:#000000" />
    <path
       d="m 118.1349,67.181189 a 1.8433451,1.0746202 11.942436 0 1 1.39862,-0.0587 1.8433451,1.0746202 11.942436 0 1 1.5804,1.162802 0.86828977,1.7127088 0.44826965 0 1 0.1719,1.243388 0.86828977,1.7127088 0.44826965 0 1 -0.0958,0.598861 1.0624437,0.55883934 3.2743977 0 1 0.89503,0.66077 1.0624437,0.55883934 3.2743977 0 1 -1.1872,0.434909 1.0624437,0.55883934 3.2743977 0 1 -0.64221,-0.20138 0.86828977,1.7127088 0.44826965 0 1 -0.69927,-1.734489 1.8433451,1.0746202 11.942436 0 1 -0.46761,-0.0621 1.8433451,1.0746202 11.942436 0 1 -1.58108,-1.43278 1.8433451,1.0746202 11.942436 0 1 0.62719,-0.611281 z"
       style="fill:#6dc381;fill-opacity:1;stroke:#00214e;stroke-width:0.0865415;stroke-linecap:butt;stroke-miterlimit:4;stroke-dasharray:none;stroke-opacity:1;stop-color:#000000"
       id="path8871" />
    <path
       id="path8873"
       d="m 117.94966,62.477879 -0.0253,-0.55595 -0.50417,0.325 z"
       style="fill:#cbbbe9;fill-opacity:1;stroke:#00214e;stroke-width:0.0865423;stroke-linecap:butt;stroke-miterlimit:4;stroke-dasharray:none;stroke-opacity:1;stop-color:#000000" />
    <path
       id="path7913"
       style="fill:#b89feb;fill-opacity:1;fill-rule:evenodd;stroke:#00214e;stroke-width:0.264583;stroke-linecap:round;stroke-linejoin:round;stroke-miterlimit:4;stroke-dasharray:none;stroke-opacity:1"
       d="m 115.05655,66.65797 2.88822,4.604128 10.26443,0.0287 10.26443,-0.0287 2.88822,-4.604128 -13.15265,0.014 z" />
    <path
       d="m 116.74188,64.621618 c 0.0102,0.0021 0.0207,0.005 0.0309,0.009 0.63666,0.194259 0.17699,1.26928 0.46039,1.47575 0.28341,0.20647 0.7009,0.38608 0.95118,0.504939 0.006,0.003 0.0104,0.006 0.0149,0.01 a 0.72314943,0.68135436 11.62409 0 1 0.4343,0.76975 0.72314943,0.68135436 11.62409 0 1 -0.84564,0.521689 0.72314943,0.68135436 11.62409 0 1 -0.37456,-0.199509 c -0.0355,-0.0274 -1.29724,-1.021029 -1.38276,-1.476451 -0.0854,-0.45465 0.0693,-1.767629 0.71128,-1.61416 z"
       style="fill:#6dc381;fill-opacity:1;stroke:#00214e;stroke-width:0.0865423;stroke-linecap:round;stroke-miterlimit:4;stroke-dasharray:none;stroke-opacity:1;stop-color:#000000"
       id="path8875" />
    <path
       style="fill:#f0b6d3;fill-opacity:1;fill-rule:evenodd;stroke:none;stroke-width:0.104248;stroke-linecap:round;stroke-linejoin:round;stroke-miterlimit:4;stroke-dasharray:none;stroke-opacity:1"
       d="m 130.21521,45.252259 c -0.55755,-3.23042 8.2781,12.12396 8.73136,19.115409 0,0 -8.47611,-0.0394 -9.40166,-0.0398 3.07796,-5.76868 1.22784,-15.84519 0.6703,-19.07558 z"
       id="path7909"
       sodipodi:nodetypes="zccz" />
  </g>
</svg>
