<?xml version="1.0" encoding="UTF-8"?>
<svg width="39.688mm" height="39.688mm" version="1.1" viewBox="0 0 39.688 39.688" xmlns="http://www.w3.org/2000/svg" xmlns:cc="http://creativecommons.org/ns#" xmlns:dc="http://purl.org/dc/elements/1.1/" xmlns:rdf="http://www.w3.org/1999/02/22-rdf-syntax-ns#">
 <metadata>
  <rdf:RDF>
   <cc:Work rdf:about="">
    <dc:format>image/svg+xml</dc:format>
    <dc:type rdf:resource="http://purl.org/dc/dcmitype/StillImage"/>
    <dc:title/>
   </cc:Work>
  </rdf:RDF>
 </metadata>
 <g transform="translate(-100.78 -218.39)" fill="none">
  <g stroke-linejoin="round" stroke-width=".39447">
   <rect x="40.424" y="163.45" width="39.688" height="39.688" ry="0"/>
   <rect x="100.78" y="166.57" width="39.688" height="39.688" ry="0"/>
   <rect x="40.424" y="217.83" width="39.688" height="39.688" ry="0"/>
  </g>
  <rect x="100.78" y="218.39" width="39.688" height="39.688" ry="0"/>
 </g>
 <g transform="translate(-100.78 -218.39)">
  <g transform="matrix(1.0668 0 0 1.0668 -8.043 -16.91)">
   <g>
    <path d="m120.42 231.8c1.3934-1.0917-5.6816 0.71228-5.6753 4.0387 7e-3 3.3264 3.2677 2.4281 3.9649 1.1584 1.3241-2.4113-0.69466-3.3128 1.7104-5.1971z" fill="#a8cbfe" fill-rule="evenodd"/>
    <g stroke="#00214e" stroke-linecap="round" stroke-linejoin="round">
     <path d="m109.52 248.08 1.5572 5.8118a3.1451 0.93647 0 0 0-5e-3 0.0418 3.1451 0.93647 0 0 0 3.1451 0.93649 3.1451 0.93647 0 0 0 3.1451-0.93649h2.5e-4l1.5685-5.8537z" fill="#f2b6bc" stroke-width=".11969"/>
     <g stroke-width=".1198">
      <path d="m114.23 246.69a4.7055 1.3584 0 0 0-4.7055 1.3583 4.7055 1.3584 0 0 0 0.56788 0.63311 4.1765 0.99337 0 0 1-0.0389-0.0939 4.1765 0.99337 0 0 1 0.0802-0.19378 4.1765 0.99337 0 0 1 0.23768-0.18635 4.1765 0.99337 0 0 1 0.38593-0.17174 4.1765 0.99337 0 0 1 0.51939-0.15055 4.1765 0.99337 0 0 1 0.63292-0.12354 4.1765 0.99337 0 0 1 0.72202-0.0918 4.1765 0.99337 0 0 1 0.78352-0.0565 4.1765 0.99337 0 0 1 0.81477-0.0191 4.1765 0.99337 0 0 1 0.29795 3e-3 4.1765 0.99337 0 0 1 0.29641 8e-3 4.1765 0.99337 0 0 1 0.29342 0.0126 4.1765 0.99337 0 0 1 0.28888 0.0176 4.1765 0.99337 0 0 1 0.28289 0.0223 4.1765 0.99337 0 0 1 0.27544 0.0271 4.1765 0.99337 0 0 1 0.2666 0.0317 4.1765 0.99337 0 0 1 0.2564 0.0362 4.1765 0.99337 0 0 1 0.24488 0.0405 4.1765 0.99337 0 0 1 0.23216 0.0444 4.1765 0.99337 0 0 1 0.21817 0.0484 4.1765 0.99337 0 0 1 0.20318 0.0519 4.1765 0.99337 0 0 1 0.18706 0.0552 4.1765 0.99337 0 0 1 0.17005 0.0582 4.1765 0.99337 0 0 1 0.15214 0.061 4.1765 0.99337 0 0 1 0.13341 0.0634 4.1765 0.99337 0 0 1 0.1141 0.0655 4.1765 0.99337 0 0 1 0.0941 0.0673 4.1765 0.99337 0 0 1 0.0737 0.0687 4.1765 0.99337 0 0 1 0.0529 0.0698 4.1765 0.99337 0 0 1 0.0319 0.0705 4.1765 0.99337 0 0 1 0.0106 0.0709 4.1765 0.99337 0 0 1-0.0389 0.094 4.7055 1.3584 0 0 0 0.56797-0.63316 4.7055 1.3584 0 0 0-4.7055-1.3583z" fill="#ea95bf"/>
      <path d="m119.44 244.94s-3.6802-1.4202 0.50958-3.7342l1.9502-0.99483s0.56978 5.45-2.4598 4.729z" fill="#fd933a"/>
      <path d="m118.37 248.68a4.1765 0.99337 0 0 0 0.0389-0.094 4.1765 0.99337 0 0 0-0.0106-0.0709 4.1765 0.99337 0 0 0-0.0319-0.0705 4.1765 0.99337 0 0 0-0.0529-0.0698 4.1765 0.99337 0 0 0-0.0737-0.0687 4.1765 0.99337 0 0 0-0.0942-0.0673 4.1765 0.99337 0 0 0-0.11409-0.0655 4.1765 0.99337 0 0 0-0.13341-0.0634 4.1765 0.99337 0 0 0-0.15214-0.061 4.1765 0.99337 0 0 0-0.17006-0.0582 4.1765 0.99337 0 0 0-0.18706-0.0552 4.1765 0.99337 0 0 0-0.20318-0.0519 4.1765 0.99337 0 0 0-0.21816-0.0484 4.1765 0.99337 0 0 0-0.23217-0.0444 4.1765 0.99337 0 0 0-0.24488-0.0405 4.1765 0.99337 0 0 0-0.25639-0.0362 4.1765 0.99337 0 0 0-0.2666-0.0317 4.1765 0.99337 0 0 0-0.27544-0.0271 4.1765 0.99337 0 0 0-0.28289-0.0223 4.1765 0.99337 0 0 0-0.28888-0.0176 4.1765 0.99337 0 0 0-0.29342-0.0126 4.1765 0.99337 0 0 0-0.29641-8e-3 4.1765 0.99337 0 0 0-0.29795-3e-3 4.1765 0.99337 0 0 0-0.81477 0.0191 4.1765 0.99337 0 0 0-0.78352 0.0565 4.1765 0.99337 0 0 0-0.72202 0.0918 4.1765 0.99337 0 0 0-0.63292 0.12354 4.1765 0.99337 0 0 0-0.51939 0.15055 4.1765 0.99337 0 0 0-0.38594 0.17174 4.1765 0.99337 0 0 0-0.23767 0.18635 4.1765 0.99337 0 0 0-0.0802 0.19378 4.1765 0.99337 0 0 0 0.0389 0.0939 4.7055 1.3584 0 0 0 4.1376 0.72525 4.7055 1.3584 0 0 0 4.1375-0.7252z" fill="#2bed70"/>
     </g>
    </g>
   </g>
   <g stroke="#00214e" stroke-linecap="round" stroke-linejoin="round" stroke-width=".1198">
    <path d="m114.23 249.41s-0.53297-5.1049 3.4061-4.8506c1.5755 0.10171 3.3694-2.5488 3.3694-2.5488" fill="none"/>
    <path d="m112.83 243.65s-3.4782 1.861-2.4962-2.8236l0.51937-2.1268s4.5007 3.1259 1.9769 4.9504z" fill="#ffd556"/>
    <path d="m114.3 247.61s-0.0319-3.8404-1.7782-4.134c-1.7464-0.29361-1.3114-2.4876-1.3114-2.4876" fill="none"/>
   </g>
   <g transform="matrix(-.3215 .042716 .042716 .3215 170.4 219.22)" fill-rule="evenodd" stroke-width=".4079">
    <g fill="#cbbbe9" stroke="#000" stroke-linecap="round">
     <g stroke-width=".4079">
      <path d="m110.13 27.353s-10.554-15.9-7.9965-20.622c1.9333-3.5693 4.698-3.1062 4.698-3.1062s-5.2794 1.6113-2.6614 8.4279c3.0762 8.0097 6.425 13.042 6.425 13.042z"/>
      <path d="m112.68 9.8519s-4.2441 26.86-4.025 27.909c0.21916 1.0487 6.3929 4.1756 12.764 3.8197 6.3715-0.35599 12-1.9964 12.433-3.2472 0.43297-1.2508-2.7956-28.61-2.7956-28.61z"/>
      <path d="m150.3 26.562s-4.4686 0.41853-5.7996-1.4673c-1.331-1.8858 5e-3 -7.4277 5e-3 -7.4277z"/>
      <path d="m145.36 25.903s-13.673 13.354-14.379 13.176c-0.70557-0.178-1.5875-6.5088-0.18708-7.4613 1.4005-0.95252 13.128-8.5774 13.128-8.5774z"/>
     </g>
     <ellipse transform="matrix(.84054 -.54176 .53209 .84668 0 0)" cx="116.4" cy="98.557" rx="4.7158" ry="7.6713" stroke-width=".40791"/>
     <path d="m106.22 3.8026s2.8515-1.4546 4.5236 0.019139c2.3174 2.0424 3.3675 4.0939 3.3675 4.0939l-1.4913 1.4384s-2.3855-6.6675-6.3998-5.5514z" stroke-width=".4079"/>
     <ellipse cx="121.87" cy="9.5897" rx="9.2798" ry="3.0933" stroke-width=".4079"/>
    </g>
    <g>
     <circle cx="148.02" cy="16.334" r=".36055"/>
     <circle cx="147.98" cy="21.237" r=".36055"/>
     <circle cx="150.56" cy="19.921" r=".36055"/>
     <circle cx="152.67" cy="23.671" r=".36055"/>
     <circle cx="152.81" cy="18.499" r=".36055"/>
    </g>
   </g>
   <circle cx="108.25" cy="229.15" r="5.7684" fill="#ffd556" fill-rule="evenodd"/>
  </g>
 </g>
</svg>
