<?xml version="1.0" encoding="UTF-8" standalone="no"?>
<svg
   xmlns:svg="http://www.w3.org/2000/svg"
   xmlns="http://www.w3.org/2000/svg"
   xmlns:sodipodi="http://sodipodi.sourceforge.net/DTD/sodipodi-0.dtd"
   xmlns:inkscape="http://www.inkscape.org/namespaces/inkscape"
   sodipodi:docname="collab.svg"
   inkscape:version="1.1-dev (89b7b8b023, 2020-05-22)"
   id="svg1911"
   version="1.1"
   viewBox="0 0 42.65435 35.686642"
   height="35.686642mm"
   width="42.65435mm">
  <defs
     id="defs1907" />
  <sodipodi:namedview
     inkscape:window-maximized="1"
     inkscape:window-y="27"
     inkscape:window-x="0"
     inkscape:window-height="845"
     inkscape:window-width="1600"
     showgrid="false"
     inkscape:current-layer="layer1"
     inkscape:document-units="mm"
     inkscape:cy="-278.27495"
     inkscape:cx="-619.39337"
     inkscape:zoom="0.35"
     inkscape:pageshadow="2"
     inkscape:pageopacity="0.0"
     borderopacity="1.0"
     bordercolor="#666666"
     pagecolor="#ffffff"
     id="base" />
  <g
     transform="translate(-269.71449,-221.79358)"
     id="layer1"
     inkscape:groupmode="layer"
     inkscape:label="Layer 1">
    <path
       style="fill:#a8cbfe;fill-opacity:1;fill-rule:evenodd;stroke:none;stroke-width:0.148527;stroke-linecap:round;stroke-linejoin:round;stroke-miterlimit:4;stroke-dasharray:none;stroke-opacity:1"
       d="m 290.94535,233.96271 c 1.68509,-1.32022 -6.87104,0.86141 -6.86346,4.88425 0.008,4.02287 3.95179,2.93644 4.79497,1.40091 1.60131,-2.91618 -0.8401,-4.0064 2.06849,-6.28516 z"
       id="path7858"
       sodipodi:nodetypes="ssss" />
    <path
       inkscape:connector-curvature="0"
       d="m 280.41065,250.63024 1.55724,5.81185 a 3.1451053,0.93647003 0 0 0 -0.005,0.0418 3.1451053,0.93647003 0 0 0 3.1451,0.93649 3.1451053,0.93647003 0 0 0 3.14509,-0.93649 h 2.5e-4 l 1.56852,-5.85368 z"
       style="fill:#f2b6bc;fill-opacity:1;stroke:#00214e;stroke-width:0.119688;stroke-linecap:round;stroke-linejoin:round;stroke-miterlimit:4;stroke-dasharray:none;stroke-opacity:1"
       id="ellipse5185" />
    <path
       inkscape:connector-curvature="0"
       d="m 285.11613,249.23941 a 4.7054656,1.3583509 0 0 0 -4.70548,1.35831 4.7054656,1.3583509 0 0 0 0.56787,0.63311 4.1764672,0.99337101 0 0 1 -0.0389,-0.0939 4.1764672,0.99337101 0 0 1 0.0802,-0.19378 4.1764672,0.99337101 0 0 1 0.23768,-0.18635 4.1764672,0.99337101 0 0 1 0.38593,-0.17174 4.1764672,0.99337101 0 0 1 0.5194,-0.15055 4.1764672,0.99337101 0 0 1 0.63292,-0.12354 4.1764672,0.99337101 0 0 1 0.72202,-0.0918 4.1764672,0.99337101 0 0 1 0.78352,-0.0565 4.1764672,0.99337101 0 0 1 0.81477,-0.0191 4.1764672,0.99337101 0 0 1 0.29795,0.003 4.1764672,0.99337101 0 0 1 0.29641,0.008 4.1764672,0.99337101 0 0 1 0.29342,0.0126 4.1764672,0.99337101 0 0 1 0.28887,0.0176 4.1764672,0.99337101 0 0 1 0.28289,0.0223 4.1764672,0.99337101 0 0 1 0.27544,0.0271 4.1764672,0.99337101 0 0 1 0.2666,0.0317 4.1764672,0.99337101 0 0 1 0.2564,0.0362 4.1764672,0.99337101 0 0 1 0.24488,0.0405 4.1764672,0.99337101 0 0 1 0.23216,0.0444 4.1764672,0.99337101 0 0 1 0.21817,0.0484 4.1764672,0.99337101 0 0 1 0.20318,0.0519 4.1764672,0.99337101 0 0 1 0.18706,0.0552 4.1764672,0.99337101 0 0 1 0.17005,0.0582 4.1764672,0.99337101 0 0 1 0.15214,0.061 4.1764672,0.99337101 0 0 1 0.13341,0.0634 4.1764672,0.99337101 0 0 1 0.1141,0.0655 4.1764672,0.99337101 0 0 1 0.0941,0.0673 4.1764672,0.99337101 0 0 1 0.0737,0.0687 4.1764672,0.99337101 0 0 1 0.0529,0.0698 4.1764672,0.99337101 0 0 1 0.0319,0.0705 4.1764672,0.99337101 0 0 1 0.0106,0.0709 4.1764672,0.99337101 0 0 1 -0.0389,0.094 4.7054656,1.3583509 0 0 0 0.56797,-0.63316 4.7054656,1.3583509 0 0 0 -4.70548,-1.35831 z"
       style="fill:#ea95bf;fill-opacity:1;stroke:#00214e;stroke-width:0.119799;stroke-linecap:round;stroke-linejoin:round;stroke-miterlimit:4;stroke-dasharray:none;stroke-opacity:1"
       id="path5952" />
    <path
       style="fill:#fd933a;fill-opacity:1;stroke:#00214e;stroke-width:0.119799;stroke-linecap:round;stroke-linejoin:round;stroke-miterlimit:4;stroke-dasharray:none;stroke-opacity:1"
       d="m 290.32413,247.48613 c 0,0 -3.68022,-1.42018 0.50958,-3.73418 l 1.95022,-0.99483 c 0,0 0.56978,5.45004 -2.4598,4.72901 z"
       id="path5948"
       inkscape:connector-curvature="0" />
    <path
       inkscape:connector-curvature="0"
       d="m 289.25364,251.23088 a 4.1764672,0.99337101 0 0 0 0.0389,-0.094 4.1764672,0.99337101 0 0 0 -0.0106,-0.0709 4.1764672,0.99337101 0 0 0 -0.0319,-0.0705 4.1764672,0.99337101 0 0 0 -0.0529,-0.0698 4.1764672,0.99337101 0 0 0 -0.0737,-0.0687 4.1764672,0.99337101 0 0 0 -0.0942,-0.0673 4.1764672,0.99337101 0 0 0 -0.11409,-0.0655 4.1764672,0.99337101 0 0 0 -0.13341,-0.0634 4.1764672,0.99337101 0 0 0 -0.15214,-0.061 4.1764672,0.99337101 0 0 0 -0.17006,-0.0582 4.1764672,0.99337101 0 0 0 -0.18705,-0.0552 4.1764672,0.99337101 0 0 0 -0.20319,-0.0519 4.1764672,0.99337101 0 0 0 -0.21816,-0.0484 4.1764672,0.99337101 0 0 0 -0.23216,-0.0444 4.1764672,0.99337101 0 0 0 -0.24489,-0.0405 4.1764672,0.99337101 0 0 0 -0.25639,-0.0362 4.1764672,0.99337101 0 0 0 -0.2666,-0.0317 4.1764672,0.99337101 0 0 0 -0.27544,-0.0271 4.1764672,0.99337101 0 0 0 -0.28289,-0.0223 4.1764672,0.99337101 0 0 0 -0.28887,-0.0176 4.1764672,0.99337101 0 0 0 -0.29342,-0.0126 4.1764672,0.99337101 0 0 0 -0.29641,-0.008 4.1764672,0.99337101 0 0 0 -0.29795,-0.003 4.1764672,0.99337101 0 0 0 -0.81477,0.0191 4.1764672,0.99337101 0 0 0 -0.78352,0.0565 4.1764672,0.99337101 0 0 0 -0.72202,0.0918 4.1764672,0.99337101 0 0 0 -0.63292,0.12354 4.1764672,0.99337101 0 0 0 -0.5194,0.15055 4.1764672,0.99337101 0 0 0 -0.38593,0.17174 4.1764672,0.99337101 0 0 0 -0.23768,0.18635 4.1764672,0.99337101 0 0 0 -0.0802,0.19378 4.1764672,0.99337101 0 0 0 0.0389,0.0939 4.7054656,1.3583509 0 0 0 4.13761,0.72525 4.7054656,1.3583509 0 0 0 4.13751,-0.7252 z"
       style="fill:#2bed70;fill-opacity:1;stroke:#00214e;stroke-width:0.119799;stroke-linecap:round;stroke-linejoin:round;stroke-miterlimit:4;stroke-dasharray:none;stroke-opacity:1"
       id="path5183" />
    <path
       sodipodi:nodetypes="csc"
       inkscape:connector-curvature="0"
       id="path5934"
       d="m 285.11612,251.9561 c 0,0 -0.53297,-5.10492 3.40611,-4.8506 1.57547,0.10171 3.36937,-2.54877 3.36937,-2.54877"
       style="fill:none;fill-opacity:1;stroke:#00214e;stroke-width:0.119799;stroke-linecap:round;stroke-linejoin:round;stroke-miterlimit:4;stroke-dasharray:none;stroke-opacity:1" />
    <path
       inkscape:connector-curvature="0"
       id="path5946"
       d="m 283.71671,246.19505 c 0,0 -3.47818,1.86095 -2.49624,-2.82357 l 0.51938,-2.1268 c 0,0 4.50069,3.12593 1.97686,4.95037 z"
       style="fill:#ffd556;fill-opacity:1;stroke:#00214e;stroke-width:0.119799;stroke-linecap:round;stroke-linejoin:round;stroke-miterlimit:4;stroke-dasharray:none;stroke-opacity:1" />
    <path
       sodipodi:nodetypes="csc"
       inkscape:connector-curvature="0"
       id="path5942"
       d="m 285.18496,250.15815 c 0,0 -0.0319,-3.8404 -1.77825,-4.134 -1.74639,-0.29361 -1.31142,-2.48761 -1.31142,-2.48761"
       style="fill:none;fill-opacity:1;stroke:#00214e;stroke-width:0.119799;stroke-linecap:round;stroke-linejoin:round;stroke-miterlimit:4;stroke-dasharray:none;stroke-opacity:1" />
    <g
       id="g3313"
       transform="matrix(-0.38881219,0.05165878,0.05165878,0.38881219,351.39347,218.74402)"
       style="stroke-width:0.295075;stroke-miterlimit:4;stroke-dasharray:none">
      <path
         sodipodi:nodetypes="cscscc"
         id="path3287"
         d="m 110.12944,27.353061 c 0,0 -10.554054,-15.90024 -7.99652,-20.6220562 1.93328,-3.5692895 4.698,-3.1061587 4.698,-3.1061587 0,0 -5.27942,1.6112666 -2.66144,8.4279139 3.0762,8.009748 6.425,13.041698 6.425,13.041698 z"
         style="fill:#cbbbe9;fill-opacity:1;fill-rule:evenodd;stroke:#000000;stroke-width:0.295075;stroke-linecap:round;stroke-miterlimit:4;stroke-dasharray:none" />
      <path
         sodipodi:nodetypes="cssscc"
         id="path3281"
         d="m 112.68448,9.8518831 c 0,0 -4.24414,26.8603209 -4.02499,27.9090399 0.21916,1.048721 6.39294,4.175646 12.76448,3.81966 6.37154,-0.355989 12.0001,-1.996424 12.43306,-3.247195 0.43297,-1.25077 -2.79557,-28.6101884 -2.79557,-28.6101884 z"
         style="fill:#cbbbe9;fill-opacity:1;fill-rule:evenodd;stroke:#000000;stroke-width:0.295075;stroke-linecap:round;stroke-miterlimit:4;stroke-dasharray:none" />
      <path
         id="path3277"
         d="m 150.29904,26.561711 c 0,0 -4.46864,0.418526 -5.7996,-1.467253 -1.33097,-1.885781 0.005,-7.427659 0.005,-7.427659 z"
         style="fill:#cbbbe9;fill-opacity:1;fill-rule:evenodd;stroke:#000000;stroke-width:0.295075;stroke-linecap:round;stroke-miterlimit:4;stroke-dasharray:none" />
      <path
         id="path3279"
         d="m 145.36002,25.902648 c 0,0 -13.67317,13.35439 -14.37874,13.176392 -0.70557,-0.177996 -1.58754,-6.508814 -0.18708,-7.461327 1.40046,-0.952516 13.12795,-8.577409 13.12795,-8.577409 z"
         style="fill:#cbbbe9;fill-opacity:1;fill-rule:evenodd;stroke:#000000;stroke-width:0.295075;stroke-linecap:round;stroke-miterlimit:4;stroke-dasharray:none" />
      <ellipse
         transform="matrix(0.8405361,-0.54175554,0.53209468,0.84668486,0,0)"
         ry="7.6712685"
         rx="4.7157965"
         cy="98.557297"
         cx="116.40334"
         id="path3275"
         style="fill:#cbbbe9;fill-opacity:1;fill-rule:evenodd;stroke:#000000;stroke-width:0.295085;stroke-linecap:round;stroke-miterlimit:4;stroke-dasharray:none" />
      <path
         sodipodi:nodetypes="csccc"
         id="path3289"
         d="m 106.22051,3.8025834 c 0,0 2.85147,-1.4545976 4.52363,0.019139 2.3174,2.0424111 3.36752,4.0938738 3.36752,4.0938738 l -1.49133,1.4383842 c 0,0 -2.38553,-6.6674686 -6.39982,-5.551397 z"
         style="fill:#cbbbe9;fill-opacity:1;fill-rule:evenodd;stroke:#000000;stroke-width:0.295075;stroke-linecap:round;stroke-miterlimit:4;stroke-dasharray:none" />
      <ellipse
         ry="3.0932524"
         rx="9.2797565"
         cy="9.5897007"
         cx="121.87297"
         id="path3273"
         style="fill:#cbbbe9;fill-opacity:1;fill-rule:evenodd;stroke:#000000;stroke-width:0.295075;stroke-linecap:round;stroke-miterlimit:4;stroke-dasharray:none" />
      <circle
         r="0.36055332"
         cy="16.333511"
         cx="148.01991"
         id="path3291"
         style="fill:#000000;fill-opacity:1;fill-rule:evenodd;stroke:none;stroke-width:0.295075;stroke-linecap:round;stroke-miterlimit:4;stroke-dasharray:none" />
      <circle
         style="fill:#000000;fill-opacity:1;fill-rule:evenodd;stroke:none;stroke-width:0.295075;stroke-linecap:round;stroke-miterlimit:4;stroke-dasharray:none"
         id="circle3293"
         cx="147.98022"
         cy="21.23699"
         r="0.36055332" />
      <circle
         r="0.36055332"
         cy="19.920549"
         cx="150.55986"
         id="circle3295"
         style="fill:#000000;fill-opacity:1;fill-rule:evenodd;stroke:none;stroke-width:0.295075;stroke-linecap:round;stroke-miterlimit:4;stroke-dasharray:none" />
      <circle
         style="fill:#000000;fill-opacity:1;fill-rule:evenodd;stroke:none;stroke-width:0.295075;stroke-linecap:round;stroke-miterlimit:4;stroke-dasharray:none"
         id="circle3297"
         cx="152.6727"
         cy="23.670868"
         r="0.36055332" />
      <circle
         r="0.36055332"
         cy="18.498663"
         cx="152.81444"
         id="circle3299"
         style="fill:#000000;fill-opacity:1;fill-rule:evenodd;stroke:none;stroke-width:0.295075;stroke-linecap:round;stroke-miterlimit:4;stroke-dasharray:none" />
    </g>
    <circle
       style="fill:#ffd556;fill-opacity:1;fill-rule:evenodd;stroke:none;stroke-width:0.152142;stroke-linecap:round;stroke-linejoin:round;stroke-miterlimit:4;stroke-dasharray:none;stroke-opacity:1"
       id="path7728"
       cx="277.0676"
       cy="229.14668"
       r="7.3531017" />
  </g>
</svg>
