<svg width="26.05mm" height="30.36mm" version="1.1" viewBox="0 0 26.05 30.36" xmlns="http://www.w3.org/2000/svg" xmlns:osb="http://www.openswatchbook.org/uri/2009/osb" xmlns:xlink="http://www.w3.org/1999/xlink">
 <defs>
  <linearGradient id="linearGradient3173" x1="1298.4" x2="1646.1" y1="200" y2="200" gradientTransform="matrix(.06157 0 0 .06157 19.879 57.015)" gradientUnits="userSpaceOnUse" xlink:href="#linearGradient877"/>
  <linearGradient id="linearGradient877" osb:paint="solid">
   <stop stop-color="#00214e" offset="0"/>
  </linearGradient>
  <linearGradient id="linearGradient2391" x1="1298.4" x2="1646.1" y1="200" y2="200" gradientTransform="matrix(.59362 .34273 0 .59362 598.28 -423.3)" gradientUnits="userSpaceOnUse" xlink:href="#linearGradient877"/>
 </defs>
 <g transform="translate(-96.588 -52.1)">
  <g fill="#c8a9fa" fill-rule="evenodd" stroke-linecap="round" stroke-linejoin="round">
   <circle cx="109.47" cy="58.189" r="5.7288" stroke-width=".12525"/>
   <path d="m98.027 72.061s-3.727-1.9878 0.81494-6.3498c4.5419-4.362 9.4066-3.9789 11.748-3.927 4.0354-0.17962 16.128 3.8433 10.647 10.141l-2.8026-3.1409h-18.164z" stroke-width=".1756"/>
   <path d="m102.82 81.453s2.6072-2.4465 3.1104-2.8289c0.50328-0.38239 1.6188 0.24781 3.512 0.26386 1.9958 0.0169 2.6873-0.54748 3.4194-0.42896 0.73217 0.11853 2.6481 2.8997 3.6154 3.0873 0.96735 0.18766 4.9967-5.3577 2.2671-6.5034-2.7296-1.1458-14.473-1.6551-16.089-0.68575-1.6164 0.96937-2.0037 2.173-2.1087 3.2425-0.10504 1.0696 2.2735 3.8533 2.2735 3.8533z" stroke-width=".1756"/>
  </g>
  <g fill="#fff" stroke="url(#linearGradient3173)" stroke-linecap="round" stroke-linejoin="round" stroke-width=".13721">
   <path d="m99.896 63.894 20.263-2.8e-4c0.29561-1.5e-4 0.53312 0.27458 0.53312 0.61572v11.083c0 0.34103-0.23751 0.61549-0.53312 0.61564l-20.263 3.3e-4c-0.29456-4.5e-4 -0.53312-0.2747-0.53312-0.61573v-11.083c0-0.3411 0.23855-0.61613 0.53312-0.61565z" fill-opacity=".48387"/>
   <path d="m99.862 63.942 20.263-3.1e-4c0.2956-1.5e-4 0.53311 0.27469 0.53311 0.61572v11.083c0 0.34114-0.23751 0.61548-0.53311 0.61564l-20.263 3.3e-4c-0.29456-4.5e-4 -0.53312-0.2747-0.53312-0.61573v-11.083c0-0.34109 0.23855-0.61612 0.53312-0.61564z" fill-opacity=".51613"/>
   <path d="m99.829 63.991 20.263-3.3e-4c0.2956-1.5e-4 0.53312 0.27469 0.53312 0.61582v11.083c0 0.34114-0.23752 0.61559-0.53312 0.61564l-20.263 3.3e-4c-0.29456-4.5e-4 -0.53312-0.2746-0.53312-0.61573v-11.083c0-0.34111 0.23856-0.61614 0.53312-0.61566z" fill-opacity=".54839"/>
   <path d="m99.796 64.039 20.263-3.7e-4c0.2956-5e-5 0.53312 0.27469 0.53312 0.61582v11.083c0 0.34103-0.23752 0.61549-0.53312 0.61564l-20.263 3.3e-4c-0.29456-5.5e-4 -0.53312-0.2747-0.53312-0.61582v-11.083c0-0.34109 0.23855-0.61613 0.53312-0.61564z" fill-opacity=".58064"/>
   <path d="m99.763 64.087 20.263-2.9e-4c0.2956-1.5e-4 0.53311 0.27459 0.53311 0.61572v11.083c0 0.34113-0.23751 0.61549-0.53311 0.61563l-20.263 3.3e-4c-0.29456-4.5e-4 -0.53312-0.27469-0.53312-0.61572v-11.083c0-0.3411 0.23855-0.61612 0.53312-0.61565z" fill-opacity=".6129"/>
   <path d="m99.73 64.135 20.263-3.2e-4c0.2956-1.5e-4 0.53312 0.2747 0.53312 0.61572v11.083c0 0.34113-0.23752 0.61559-0.53312 0.61564l-20.263 3.2e-4c-0.29456-4.5e-4 -0.53312-0.27459-0.53312-0.61572v-11.083c0-0.3411 0.23856-0.61613 0.53312-0.61565z" fill-opacity=".64516"/>
   <path d="m99.663 64.231 20.263-2.8e-4c0.2956-1.5e-4 0.53311 0.2746 0.53311 0.61573v11.083c0 0.34103-0.23751 0.61549-0.53311 0.61564l-20.263 3.2e-4c-0.29456-5.5e-4 -0.53312-0.27469-0.53312-0.61582v-11.083c0-0.34111 0.23856-0.61613 0.53312-0.61565z" fill-opacity=".70968"/>
   <path d="m99.63 64.279 20.263-3e-4c0.2956-1.4e-4 0.53312 0.27459 0.53312 0.61573v11.083c0 0.34114-0.23752 0.61549-0.53312 0.61564l-20.263 3.2e-4c-0.29456-4.5e-4 -0.53312-0.27469-0.53312-0.61572v-11.083c0-0.34109 0.23856-0.61613 0.53312-0.61565z" fill-opacity=".74194"/>
   <path d="m99.597 64.327 20.263-3.2e-4c0.2956-1.5e-4 0.53312 0.27469 0.53312 0.61572v11.083c0 0.34114-0.23752 0.61559-0.53312 0.61564l-20.263 3.2e-4c-0.29456-4.5e-4 -0.53312-0.27458-0.53312-0.61572v-11.083c0-0.3411 0.23855-0.61613 0.53312-0.61565z" fill-opacity=".77419"/>
   <path d="m99.564 64.376 20.263-3.5e-4c0.29559-5e-5 0.53311 0.27469 0.53311 0.61582v11.083c0 0.34114-0.23752 0.61559-0.53311 0.61574l-20.263 3.2e-4c-0.29456-5.4e-4 -0.53312-0.27469-0.53312-0.61582v-11.083c0-0.34109 0.23856-0.61612 0.53312-0.61564z" fill-opacity=".80645"/>
   <path d="m99.531 64.424 20.263-2.7e-4c0.2956-1.5e-4 0.53312 0.27459 0.53312 0.61572v11.083c0 0.34103-0.23752 0.61548-0.53312 0.61563l-20.263 3.2e-4c-0.29456-5.4e-4 -0.53312-0.27469-0.53312-0.61582v-11.083c0-0.34111 0.23855-0.61614 0.53312-0.61566z" fill-opacity=".83871"/>
   <path d="m99.497 64.472 20.263-3.1e-4c0.2956-1.5e-4 0.53312 0.27458 0.53312 0.61572v11.083c0 0.34114-0.23752 0.61549-0.53312 0.61564l-20.263 3.3e-4c-0.29456-4.5e-4 -0.53312-0.2747-0.53312-0.61573v-11.083c0-0.34109 0.23855-0.61612 0.53312-0.61563z" fill-opacity=".87097"/>
   <path d="m99.464 64.52 20.263-3.3e-4c0.29559-1.5e-4 0.53311 0.27469 0.53311 0.61572v11.083c0 0.34114-0.23752 0.61559-0.53311 0.61564l-20.263 3.3e-4c-0.29456-4.5e-4 -0.53312-0.27459-0.53312-0.61573v-11.083c0-0.34111 0.23856-0.61612 0.53312-0.61565z" fill-opacity=".90323"/>
   <path d="m99.431 64.568 20.263-3.6e-4c0.2956-5e-5 0.53312 0.27469 0.53312 0.61582v11.083c0 0.34103-0.23752 0.61548-0.53312 0.61563l-20.263 3.3e-4c-0.29456-5.5e-4 -0.53312-0.2747-0.53312-0.61582v-11.083c0-0.34109 0.23855-0.61612 0.53312-0.61564z" fill-opacity=".93548"/>
   <path d="m99.398 64.616 20.263-2.8e-4c0.2956-1.5e-4 0.53312 0.27459 0.53312 0.61572v11.083c0 0.34103-0.23752 0.61549-0.53312 0.61563l-20.263 3.3e-4c-0.29456-4.5e-4 -0.53312-0.2747-0.53312-0.61572v-11.083c0-0.3411 0.23856-0.61612 0.53312-0.61565z" fill-opacity=".96774"/>
  </g>
  <g transform="matrix(.10372 -.059882 0 .10372 -43.195 138.3)" stroke-linecap="round" stroke-linejoin="round" stroke-width="1.3229">
   <path d="m1374.6 84.244 195.35 112.79c2.8481 1.6443 5.1409 5.6156 5.1409 8.9043v106.85c0 3.2887-2.2928 4.6124-5.1409 2.9681l-195.35-112.79c-2.848-1.6443-5.1409-5.6157-5.1409-8.9043v-106.85c0-3.2887 2.2929-4.6124 5.1409-2.9681z" fill="#fff" stroke="url(#linearGradient2391)"/>
   <g fill="none" stroke="#00214e">
    <path d="m1369.4 90.765c2.0138 7.9737 92.519 122.4 102.79 128.33 10.276 5.9328 102.76 4.1417 102.76-11.626"/>
    <path d="m1453.5 199.44-81.845 0.44406"/>
    <path d="m1491.1 221.9 81.678 94.194"/>
   </g>
  </g>
  <g fill="#c8a9fa" fill-rule="evenodd" stroke-linecap="round" stroke-linejoin="round">
   <g stroke-width=".1756">
    <circle cx="104.16" cy="54.458" r="2.195"/>
    <circle cx="114.16" cy="54.295" r="2.195"/>
    <circle cx="99.155" cy="70.529" r="2.195"/>
    <circle cx="119.64" cy="70.529" r="2.195"/>
   </g>
   <ellipse transform="rotate(-21.645)" cx="64.576" cy="110.22" rx="3.1601" ry="3.7699" stroke-width=".27613"/>
   <ellipse transform="matrix(-.92949 -.36885 -.36885 .92949 0 0)" cx="-139.03" cy="29.375" rx="3.3166" ry="3.9567" stroke-width=".28981"/>
  </g>
  <path d="m109.46 60.285 0.74604-1.4476-1.7529 0.0899z" fill="#9d7ed5" stop-color="#000000" stroke="#00214e" stroke-width=".25324"/>
  <g fill="#073984" fill-rule="evenodd" stroke-linecap="round" stroke-linejoin="round">
   <ellipse transform="rotate(-21.645)" cx="64.332" cy="110.99" rx="1.9549" ry="2.3322" stroke-width=".17082"/>
   <path d="m108.19 70.015c-0.63428 6e-3 -1.2665 0.46408-1.2577 1.3511 0.0175 1.774 2.5012 2.7722 2.5012 2.7722s2.4837-0.99824 2.5012-2.7722c0.0165-1.6666-2.2294-1.8181-2.5012-0.30425-0.12716-0.70819-0.68593-1.0522-1.2435-1.0468z" stroke-width=".069504"/>
   <g stroke-width=".041519">
    <ellipse transform="rotate(-21.645)" cx="65.472" cy="107.9" rx=".47515" ry=".56684"/>
    <ellipse transform="rotate(-21.645)" cx="64.159" cy="107.7" rx=".47515" ry=".56684"/>
    <ellipse transform="rotate(-21.645)" cx="62.854" cy="108.13" rx=".47515" ry=".56684"/>
   </g>
   <ellipse transform="matrix(-.92949 -.36885 -.36885 .92949 0 0)" cx="-139.05" cy="30.28" rx="1.9549" ry="2.3322" stroke-width=".17082"/>
   <g stroke-width=".041519">
    <ellipse transform="matrix(-.92949 -.36885 -.36885 .92949 0 0)" cx="-137.91" cy="27.188" rx=".47515" ry=".56684"/>
    <ellipse transform="matrix(-.92949 -.36885 -.36885 .92949 0 0)" cx="-139.23" cy="26.986" rx=".47515" ry=".56684"/>
    <ellipse transform="matrix(-.92949 -.36885 -.36885 .92949 0 0)" cx="-140.53" cy="27.42" rx=".47515" ry=".56684"/>
   </g>
  </g>
 </g>
</svg>
