<?xml version="1.0" encoding="UTF-8"?>
<svg width="39.688mm" height="39.688mm" version="1.1" viewBox="0 0 39.688 39.688" xmlns="http://www.w3.org/2000/svg"><g transform="translate(-40.424 -163.45)" fill="none"><g stroke-linejoin="round" stroke-width=".39447"><rect x="40.424" y="163.45" width="39.688" height="39.688" ry="0"/><rect x="100.78" y="166.57" width="39.688" height="39.688" ry="0"/><rect x="40.424" y="217.83" width="39.688" height="39.688" ry="0"/></g><rect x="100.78" y="218.39" width="39.688" height="39.688" ry="0"/></g><g transform="translate(-40.424 -163.45)"><g transform="matrix(1.0002 0 0 1.0002 .24024 -1.4463)"><rect x="39.161" y="166.17" width="42.224" height="36.933" ry=".23606" fill="none" opacity=".51885"/><g transform="matrix(.98788 0 0 .98788 61.919 -32.428)" stroke="#00214e" stroke-linecap="round" stroke-linejoin="round" stroke-width=".26458"><path d="m2.3613 219.27c1.1406-0.0466 4.2481 0.47341 4.2481-3.6553 0-4.1291-4.4699-3.613-4.4699-3.613 0-1e-3 0.06441-5.6404-4.4662-5.6386-4.531 2e-3 -4.5178 4.8798-4.5178 4.8798s-0.97472-1.8157-3.9118-1.7768c-2.3818 0.0316-3.9466 1.9314-4.09 4.084-8.25e-4 -1e-4 -3.6584-0.34239-3.5919 2.7515 0.05146 1.6488 0.95781 2.9576 2.4986 2.9682 6.3349-0.029 12.856 0.0123 18.301 2.3e-4z" fill="#250657"/><path d="m3.2861 218.66c1.1406-0.0466 4.2481 0.47341 4.2481-3.6553 0-4.1291-4.4699-3.613-4.4699-3.613 0-1e-3 0.06441-5.6404-4.4662-5.6386-4.531 2e-3 -4.5178 4.8798-4.5178 4.8798s-0.97472-1.8157-3.9118-1.7768c-2.3818 0.0316-3.9466 1.9314-4.09 4.084-8.25e-4 -1e-4 -3.6584-0.34239-3.5919 2.7515 0.05146 1.6488 0.95781 2.9576 2.4986 2.9682 6.3349-0.029 12.856 0.0123 18.301 2.3e-4z" fill="#fff"/></g><g><path d="m60.3 172.82c-3.1782 10.108-12.01 23.34-11.309 23.332 0.70098-8e-3 8.907 0.012 11.784-0.035-0.02566-2.3338 0.6418-26.847-0.47439-23.297z" fill="#ffdf7e" fill-rule="evenodd"/><g stroke="#00214e" stroke-width=".086542"><path d="m50.94 194.72c0.01004-3e-3 0.02038-6e-3 0.03102-8e-3 0.6485-0.1501 0.78791 1.0107 1.1366 1.0478 0.34867 0.0371 0.80004-0.0161 1.0762-0.0383 0.0062-5.2e-4 0.012-4e-5 0.01765 8e-4a0.68135 0.72315 71.624 0 1 0.76098 0.44947 0.68135 0.72315 71.624 0 1-0.47149 0.87461 0.68135 0.72315 71.624 0 1-0.42414 0.0145c-0.04446-6e-3 -1.634-0.23562-1.9357-0.58726-0.30126-0.35105-0.8238-1.5655-0.19109-1.7535z" fill="#4ab563" stop-color="#000000" stroke-linecap="round"/><path d="m52.109 197.63a1.8433 1.0746 19.935 0 1 1.3932 0.13638 1.8433 1.0746 19.935 0 1 1.4034 1.3713 0.86829 1.7127 8.4412 0 1-0.0026 1.2552 0.86829 1.7127 8.4412 0 1-0.17812 0.57972 1.0624 0.55884 11.267 0 1 0.79445 0.77879 1.0624 0.55884 11.267 0 1-1.2361 0.26561 1.0624 0.55884 11.267 0 1-0.60797-0.28873 0.86829 1.7127 8.4412 0 1-0.4513-1.8149 1.8433 1.0746 19.935 0 1-0.45443-0.12657 1.8433 1.0746 19.935 0 1-1.3665-1.6387 1.8433 1.0746 19.935 0 1 0.7061-0.51812z" fill="#4ab563" stop-color="#000000"/><rect transform="matrix(-.89249 .45107 .45105 .8925 0 0)" x="41.679" y="196.24" width="3.9778" height="6.1557" ry="1.4965" fill="#b2debb" stop-color="#000000"/></g></g><g fill="#4ab563" stroke="#00214e" stroke-linecap="round" stroke-width=".086542"><path d="m49.495 192.35a0.75468 0.75468 0 0 0 0.79781 0.70892 0.75468 0.75468 0 0 0 0.70893-0.7978 0.75468 0.75468 0 0 0-0.79781-0.70893 0.75468 0.75468 0 0 0-0.70893 0.79781" stop-color="#000000"/><path d="m47.403 193.88a1.8867 1.8867 0 0 0 1.9945 1.7723 1.8867 1.8867 0 0 0 1.7723-1.9945 1.8867 1.8867 0 0 0-1.9945-1.7723 1.8867 1.8867 0 0 0-1.7723 1.9945" stop-color="#000000"/><path d="m46.872 193.6a0.75468 0.75468 0 0 0 0.79781 0.70894 0.75468 0.75468 0 0 0 0.70893-0.79781 0.75468 0.75468 0 0 0-0.79781-0.70893 0.75468 0.75468 0 0 0-0.70892 0.7978" stop-color="#000000"/></g><g><g stroke="#00214e"><path d="m50.527 198.98a1.8433 1.0746 11.942 0 1 1.3986-0.0587 1.8433 1.0746 11.942 0 1 1.5804 1.1628 0.86829 1.7127 0.44827 0 1 0.17191 1.2434 0.86829 1.7127 0.44827 0 1-0.09577 0.59886 1.0624 0.55884 3.2744 0 1 0.89502 0.66077 1.0624 0.55884 3.2744 0 1-1.1872 0.43491 1.0624 0.55884 3.2744 0 1-0.64221-0.20138 0.86829 1.7127 0.44827 0 1-0.69927-1.7345 1.8433 1.0746 11.942 0 1-0.46761-0.0621 1.8433 1.0746 11.942 0 1-1.5811-1.4328 1.8433 1.0746 11.942 0 1 0.6272-0.61128z" fill="#6dc381" stop-color="#000000" stroke-width=".086542"/><path d="m50.342 194.27-0.02529-0.55595-0.50416 0.325z" fill="#cbbbe9" stop-color="#000000" stroke-width=".086542"/><path d="m47.449 198.45 2.8882 4.6041 10.264 0.0287 10.264-0.0287 2.8882-4.6041-13.153 0.014z" fill="#b89feb" fill-rule="evenodd" stroke-linecap="round" stroke-linejoin="round" stroke-width=".26458"/><path d="m49.134 196.42c0.0102 2e-3 0.02065 5e-3 0.03086 9e-3 0.63667 0.19426 0.17699 1.2693 0.46039 1.4758 0.28341 0.20647 0.7009 0.38608 0.95118 0.50494 0.0056 3e-3 0.01041 6e-3 0.01486 0.01a0.72315 0.68135 11.624 0 1 0.4343 0.76976 0.72315 0.68135 11.624 0 1-0.84563 0.52168 0.72315 0.68135 11.624 0 1-0.37456-0.19951c-0.03551-0.0274-1.2972-1.021-1.3828-1.4764-0.08538-0.45465 0.06931-1.7676 0.71128-1.6142z" fill="#6dc381" stop-color="#000000" stroke-linecap="round" stroke-width=".086542"/></g><path d="m62.607 178.58c-0.55754-2.971 8.2781 11.15 8.7314 17.58 0 0-8.4761-0.0362-9.4017-0.0366 3.078-5.3055 1.2278-14.573 0.6703-17.544z" fill="#f0b6d3" fill-rule="evenodd"/></g></g></g></svg>
