<?xml version="1.0" encoding="UTF-8"?>
<svg width="39.688mm" height="39.688mm" version="1.1" viewBox="0 0 39.688 39.688" xmlns="http://www.w3.org/2000/svg"><defs><filter id="filter8750-3" color-interpolation-filters="sRGB"><feTurbulence baseFrequency="2.58515 2.56966" result="turbulence" seed="241" type="fractalNoise"/><feComposite in="SourceGraphic" in2="turbulence" operator="in" result="composite1"/><feColorMatrix result="color" values="1 0 0 0 0 0 1 0 0 0 0 0 1 0 0 0 0 0 9.26271 -0.678271 "/><feFlood flood-color="rgb(255,255,255)" flood-opacity=".37647" result="flood"/><feMerge result="merge"><feMergeNode in="flood"/><feMergeNode in="color"/></feMerge><feComposite in2="SourceGraphic" operator="in" result="composite2"/></filter></defs><g transform="translate(-100.78 -166.57)" fill="none"><g stroke-linejoin="round" stroke-width=".39447"><rect x="40.424" y="163.45" width="39.688" height="39.688" ry="0"/><rect x="100.78" y="166.57" width="39.688" height="39.688" ry="0"/><rect x="40.424" y="217.83" width="39.688" height="39.688" ry="0"/></g><rect x="100.78" y="218.39" width="39.688" height="39.688" ry="0"/></g><g transform="translate(-100.78 -166.57)"><g transform="matrix(.94363 0 0 .94363 -31.146 136.94)"><rect x="139.46" y="33.955" width="42.224" height="36.933" ry=".23606" fill="none" opacity=".51885"/><path d="m155.96 47.078-14.276 8.2422 14.276 8.2422 14.276-8.2422z" fill="#febc85" stop-color="#000000"/><path transform="matrix(.16484 0 0 .16484 103.3 -5.629)" d="m319.48 269.74-86.603 100 86.603 50z" fill="#edccea" fill-opacity=".46639" filter="url(#filter8750-3)" stop-color="#000000"/><path d="m155.96 38.835 14.276 16.484-14.276 8.2422z" fill="#deaaff" fill-opacity=".45264" stop-color="#000000"/><g stroke-linejoin="round"><g><path d="m155.96 38.835-14.276 16.484" fill="none" stop-color="#000000" stroke="#2a4269" stroke-width=".17446"/><path d="m155.96 38.835 14.276 16.484" fill="none" stop-color="#000000" stroke="#1b3661" stroke-width=".17446"/><path d="m141.68 55.32 14.336 8.1695" fill="#281845" stop-color="#000000" stroke="#00214e" stroke-width=".17475"/></g><path d="m155.96 47.078 14.276 8.2422" fill="none" stop-color="#000000" stroke="#00214e" stroke-opacity=".51358" stroke-width=".17446"/><path d="m155.96 47.078-14.276 8.2422" fill="none" stop-color="#000000" stroke="#746785" stroke-opacity=".49685" stroke-width=".17446"/><path d="m170.3 55.357-14.336 8.1695" fill="#281845" stop-color="#000000" stroke="#00214e" stroke-width=".17475"/><path d="m155.96 38.835 0.10915 24.726" fill="#00214e" stop-color="#000000" stroke="#00214e" stroke-width=".17403"/></g><g transform="matrix(.18907 0 0 .16484 138.82 30.93)"><path d="m226.06 229.07-103.87-98.911 103.92 50 0.11493 41.508z" fill="#af83f8" stop-color="#000000"/><path d="m122.2 130.16 103.96 57.066-0.0411-7.0657z" fill="#e77681" stop-color="#000000"/><path d="m124 131.49 102.16 67.442c-0.0479 3.7188 2e-3 7.1446 2e-3 7.1446z" fill="#b2dfbc" stop-color="#000000"/><path d="m122.92 130.75 103.2 89.409 0.0581-6.7071z" fill="#9296f6" stop-color="#000000"/><path d="m226.19 186.76-102.78-56.121 102.74 62.994z" fill="#febc85" stop-color="#000000"/><path d="m126.68 132.64 99.474 67.369 0.0364-6.4396z" fill="#ffe9a6" stop-color="#000000"/><path d="m122.49 130.28 103.67 75.672 0.0168 7.4807z" fill="#a8cbfe" stop-color="#000000"/></g><path d="m162.18 52.506 19.484 8.1089-0.12716 8.1194z" fill="none" stroke="#00214e" stroke-linecap="round" stroke-linejoin="round" stroke-width=".17475"/></g></g></svg>
